<svg width="91" height="35" viewBox="0 0 91 35" fill="none" xmlns="http://www.w3.org/2000/svg">
<path d="M6.3 16.375V34H1.4V16.375H6.3ZM25.4154 34H20.5154L13.9904 24.15V34H9.09043V16.375H13.9904L20.5154 26.35V16.375H25.4154V34ZM40.1566 16.375V20.275H33.1066V23.375H38.3066V27.1H33.1066V34H28.2066V16.375H40.1566ZM47.1203 16.375V34H42.2203V16.375H47.1203ZM58.3607 34.175C56.7107 34.175 55.1941 33.7917 53.8107 33.025C52.4274 32.2417 51.3274 31.1667 50.5107 29.8C49.7107 28.4167 49.3107 26.8583 49.3107 25.125C49.3107 23.3917 49.7107 21.8417 50.5107 20.475C51.3274 19.0917 52.4274 18.0167 53.8107 17.25C55.1941 16.4833 56.7107 16.1 58.3607 16.1C60.0274 16.1 61.5441 16.4833 62.9107 17.25C64.2941 18.0167 65.3857 19.0917 66.1857 20.475C66.9857 21.8417 67.3857 23.3917 67.3857 25.125C67.3857 26.8583 66.9857 28.4167 66.1857 29.8C65.3857 31.1667 64.2941 32.2417 62.9107 33.025C61.5274 33.7917 60.0107 34.175 58.3607 34.175ZM58.3607 29.625C59.6107 29.625 60.5941 29.2167 61.3107 28.4C62.0441 27.5833 62.4107 26.4917 62.4107 25.125C62.4107 23.725 62.0441 22.625 61.3107 21.825C60.5941 21.0083 59.6107 20.6 58.3607 20.6C57.0941 20.6 56.1024 21.0083 55.3857 21.825C54.6691 22.625 54.3107 23.725 54.3107 25.125C54.3107 26.5083 54.6691 27.6083 55.3857 28.425C56.1024 29.225 57.0941 29.625 58.3607 29.625ZM85.9135 34H81.0135L74.4885 24.15V34H69.5885V16.375H74.4885L81.0135 26.35V16.375H85.9135V34Z" fill="#262626"/>
<rect width="6" height="11" rx="3" transform="matrix(-1 0 0 1 11 0)" fill="#262626"/>
<rect width="7" height="10" rx="3" transform="matrix(-1 0 0 1 9 2)" fill="#2DA0B8"/>
<rect width="7" height="10" rx="3" transform="matrix(-1 0 0 1 7 3)" fill="#FDDE55"/>
</svg>
