<svg width="281" height="116" viewBox="0 0 281 116" fill="none" xmlns="http://www.w3.org/2000/svg">
<rect width="24" height="38" rx="7" transform="matrix(-1 0 0 1 41 0)" fill="#262626"/>
<path d="M280.309 115.219H266.086L242.298 79.2053V115.219H228.076V56.8317H242.298L266.086 93.0121V56.8317H280.309V115.219Z" fill="#262626"/>
<path d="M190.304 115.802C184.815 115.802 179.769 114.526 175.166 111.976C170.62 109.425 166.988 105.876 164.271 101.329C161.609 96.7272 160.278 91.5704 160.278 85.8592C160.278 80.148 161.609 75.0189 164.271 70.4721C166.988 65.9253 170.62 62.3766 175.166 59.826C179.769 57.2753 184.815 56 190.304 56C195.793 56 200.812 57.2753 205.358 59.826C209.961 62.3766 213.565 65.9253 216.171 70.4721C218.832 75.0189 220.163 80.148 220.163 85.8592C220.163 91.5704 218.832 96.7272 216.171 101.329C213.509 105.876 209.905 109.425 205.358 111.976C200.812 114.526 195.793 115.802 190.304 115.802ZM190.304 102.827C194.962 102.827 198.677 101.274 201.449 98.1688C204.277 95.0637 205.691 90.9605 205.691 85.8592C205.691 80.7025 204.277 76.5992 201.449 73.5496C198.677 70.4444 194.962 68.8919 190.304 68.8919C185.591 68.8919 181.82 70.4167 178.992 73.4664C176.22 76.5161 174.834 80.647 174.834 85.8592C174.834 91.0159 176.22 95.1469 178.992 98.252C181.82 101.302 185.591 102.827 190.304 102.827Z" fill="#262626"/>
<path d="M152.384 56.8317V115.219H138.161V56.8317H152.384Z" fill="#262626"/>
<path d="M130.686 56.8317V68.2265H106.898V80.5361H124.697V91.5981H106.898V115.219H92.6755V56.8317H130.686Z" fill="#262626"/>
<path d="M82.3659 115.219H68.1433L44.3558 79.2053V115.219H30.1331V56.8317H44.3558L68.1433 93.0121V56.8317H82.3659V115.219Z" fill="#262626"/>
<path d="M19.8261 56.8317V115.219H5.60352V56.8317H19.8261Z" fill="#262626"/>
<rect width="25" height="38" rx="7" transform="matrix(-1 0 0 1 34 5)" fill="#2DA0B8"/>
<rect width="25" height="38" rx="7" transform="matrix(-1 0 0 1 25 9)" fill="#FDDE55"/>
</svg>
